<?xml version="1.0"?>
<svg width="256.02" height="267" xmlns="http://www.w3.org/2000/svg" xmlns:svg="http://www.w3.org/2000/svg">
 <title>google-chat-logo</title>
 <g class="layer">
  <title>Layer 1</title>
  <path d="m58.11,144.01l0,-86.74l-37.9,0a20.21,20.21 0 0 0 -20.2,20.23l0,179.4a10.1,10.1 0 0 0 17.25,7.14l41.7,-41.69l118.74,0a20.21,20.21 0 0 0 20.21,-20.21l0,-37.9l-119.59,0a20.21,20.21 0 0 1 -20.21,-20.23z" fill="#3baff6" id="svg_1"/>
  <path d="m235.81,0l-157.49,0a20.21,20.21 0 0 0 -20.21,20.21l0,37.06l119.59,0a20.21,20.21 0 0 1 20.21,20.23l0,86.74l37.9,0a20.21,20.21 0 0 0 20.2,-20.23l0,-123.8a20.21,20.21 0 0 0 -20.2,-20.21z" fill="#75c6f9" id="svg_2"/>
  <path d="m177.7,57.27l-119.59,0l0,86.74a20.21,20.21 0 0 0 20.21,20.21l119.59,0l0,-86.72a20.21,20.21 0 0 0 -20.21,-20.23z" fill="#019af9" id="svg_3"/>
 </g>
</svg>